<svg xmlns="http://www.w3.org/2000/svg" xmlns:xlink="http://www.w3.org/1999/xlink" width="500" zoomAndPan="magnify" viewBox="0 0 375 374.999991" height="500" preserveAspectRatio="xMidYMid meet" version="1.0"><defs><g/><clipPath id="66658064b7"><path d="M 0 0 L 372.007812 0 L 372.007812 372.007812 L 0 372.007812 Z M 0 0 " clip-rule="nonzero"/></clipPath><clipPath id="318f43fec8"><path d="M 186.003906 0 C 83.277344 0 0 83.277344 0 186.003906 C 0 288.730469 83.277344 372.007812 186.003906 372.007812 C 288.730469 372.007812 372.007812 288.730469 372.007812 186.003906 C 372.007812 83.277344 288.730469 0 186.003906 0 Z M 186.003906 0 " clip-rule="nonzero"/></clipPath></defs><g clip-path="url(#66658064b7)"><g clip-path="url(#318f43fec8)"><path fill="#a6a6a6" d="M 0 0 L 372.007812 0 L 372.007812 372.007812 L 0 372.007812 Z M 0 0 " fill-opacity="1" fill-rule="nonzero"/></g></g><g fill="#000000" fill-opacity="1"><g transform="translate(61.489469, 215.971836)"><g><path d="M 23.140625 -61.828125 L 23.140625 0 L 6.1875 0 L 6.1875 -61.828125 Z M 23.140625 -61.828125 "/></g></g></g><g fill="#000000" fill-opacity="1"><g transform="translate(90.814398, 215.971836)"><g><path d="M 55.5625 -43.8125 C 60.976562 -43.8125 64.800781 -42.335938 67.03125 -39.390625 C 69.269531 -36.453125 70.390625 -32.390625 70.390625 -27.203125 L 70.390625 0 L 55.5625 0 L 55.5625 -25.34375 C 55.5625 -27.757812 55.0625 -29.484375 54.0625 -30.515625 C 53.0625 -31.546875 51.910156 -32.0625 50.609375 -32.0625 C 49.253906 -32.0625 47.988281 -31.570312 46.8125 -30.59375 C 45.632812 -29.625 44.988281 -27.960938 44.875 -25.609375 L 44.875 0 L 30.03125 0 L 30.03125 -25.34375 C 30.03125 -27.757812 29.53125 -29.484375 28.53125 -30.515625 C 27.53125 -31.546875 26.378906 -32.0625 25.078125 -32.0625 C 23.722656 -32.0625 22.441406 -31.570312 21.234375 -30.59375 C 20.035156 -29.625 19.40625 -27.960938 19.34375 -25.609375 L 19.34375 0 L 4.421875 0 L 4.421875 -42.390625 L 19.34375 -42.390625 L 19.34375 -38.328125 C 20.519531 -39.804688 22.050781 -41.085938 23.9375 -42.171875 C 25.820312 -43.265625 27.851562 -43.8125 30.03125 -43.8125 C 33.507812 -43.8125 36.203125 -43.175781 38.109375 -41.90625 C 40.023438 -40.644531 41.601562 -38.863281 42.84375 -36.5625 C 43.550781 -37.738281 44.640625 -38.882812 46.109375 -40 C 47.578125 -41.125 49.164062 -42.039062 50.875 -42.75 C 52.582031 -43.457031 54.144531 -43.8125 55.5625 -43.8125 Z M 55.5625 -43.8125 "/></g></g></g><g fill="#000000" fill-opacity="1"><g transform="translate(165.628306, 215.971836)"><g><path d="M 23.671875 -43.8125 C 26.023438 -43.8125 28.332031 -43.5625 30.59375 -43.0625 C 32.863281 -42.5625 34.925781 -41.675781 36.78125 -40.40625 C 38.644531 -39.144531 40.117188 -37.453125 41.203125 -35.328125 C 42.296875 -33.210938 42.84375 -30.503906 42.84375 -27.203125 C 42.84375 -24.085938 42.84375 -20.921875 42.84375 -17.703125 C 42.84375 -14.492188 42.84375 -11.550781 42.84375 -8.875 C 42.84375 -6.195312 42.84375 -4.046875 42.84375 -2.421875 C 42.84375 -0.804688 42.84375 0 42.84375 0 L 28 0 L 28 -4.15625 C 25.289062 -0.5 21.140625 1.328125 15.546875 1.328125 C 14.953125 1.328125 13.976562 1.175781 12.625 0.875 C 11.269531 0.582031 9.84375 0.0078125 8.34375 -0.84375 C 6.84375 -1.695312 5.5625 -2.945312 4.5 -4.59375 C 3.445312 -6.238281 2.859375 -8.414062 2.734375 -11.125 C 2.679688 -14.1875 3.226562 -16.71875 4.375 -18.71875 C 5.519531 -20.726562 7.035156 -22.273438 8.921875 -23.359375 C 10.804688 -24.453125 12.78125 -25.175781 14.84375 -25.53125 C 16.195312 -25.757812 17.695312 -25.945312 19.34375 -26.09375 C 20.988281 -26.25 22.59375 -26.382812 24.15625 -26.5 C 25.71875 -26.613281 27 -26.671875 28 -26.671875 C 28 -27.265625 27.847656 -28 27.546875 -28.875 C 27.253906 -29.757812 26.664062 -30.539062 25.78125 -31.21875 C 24.90625 -31.894531 23.582031 -32.234375 21.8125 -32.234375 C 18.925781 -32.234375 16.289062 -31.789062 13.90625 -30.90625 C 11.519531 -30.03125 9.828125 -29.328125 8.828125 -28.796875 L 4.765625 -38.421875 C 5.828125 -39.191406 7.3125 -39.988281 9.21875 -40.8125 C 11.132812 -41.632812 13.328125 -42.335938 15.796875 -42.921875 C 18.273438 -43.515625 20.898438 -43.8125 23.671875 -43.8125 Z M 22.53125 -9.796875 C 24.644531 -9.796875 26.082031 -10.328125 26.84375 -11.390625 C 27.613281 -12.453125 28 -13.425781 28 -14.3125 C 28 -14.78125 28 -15.367188 28 -16.078125 C 28 -16.785156 28 -17.429688 28 -18.015625 C 28 -18.609375 28 -18.90625 28 -18.90625 C 28 -18.90625 27.46875 -18.90625 26.40625 -18.90625 C 25.34375 -18.90625 24.148438 -18.800781 22.828125 -18.59375 C 21.503906 -18.382812 20.398438 -17.957031 19.515625 -17.3125 C 18.460938 -16.601562 17.875 -15.644531 17.75 -14.4375 C 17.632812 -13.226562 17.972656 -12.148438 18.765625 -11.203125 C 19.566406 -10.265625 20.820312 -9.796875 22.53125 -9.796875 Z M 22.53125 -9.796875 "/></g></g></g><g fill="#000000" fill-opacity="1"><g transform="translate(212.883838, 215.971836)"><g><path d="M 48.9375 -42.390625 L 48.9375 -4.953125 C 48.9375 -0.648438 48.519531 3.117188 47.6875 6.359375 C 46.863281 9.597656 45.40625 12.320312 43.3125 14.53125 C 41.226562 16.738281 38.332031 18.398438 34.625 19.515625 C 32.445312 20.160156 30.101562 20.554688 27.59375 20.703125 C 25.09375 20.859375 22.722656 20.816406 20.484375 20.578125 C 17.722656 20.285156 14.925781 19.535156 12.09375 18.328125 C 9.269531 17.117188 6.679688 15.78125 4.328125 14.3125 L 8.921875 4.234375 C 10.628906 5.359375 12.425781 6.332031 14.3125 7.15625 C 16.195312 7.976562 18.109375 8.445312 20.046875 8.5625 C 23.347656 8.863281 26 8.6875 28 8.03125 C 30 7.382812 31.46875 6.425781 32.40625 5.15625 C 33.351562 3.894531 33.882812 2.554688 34 1.140625 C 34.0625 0.492188 34.09375 -0.238281 34.09375 -1.0625 C 34.09375 -1.882812 34.09375 -2.328125 34.09375 -2.390625 C 32.382812 -1.210938 30.515625 -0.285156 28.484375 0.390625 C 26.453125 1.066406 24.316406 1.40625 22.078125 1.40625 C 18.128906 1.40625 14.695312 0.390625 11.78125 -1.640625 C 8.875 -3.671875 6.625 -6.40625 5.03125 -9.84375 C 3.445312 -13.289062 2.65625 -17.078125 2.65625 -21.203125 C 2.65625 -25.378906 3.445312 -29.175781 5.03125 -32.59375 C 6.625 -36.007812 8.875 -38.734375 11.78125 -40.765625 C 14.695312 -42.796875 18.128906 -43.8125 22.078125 -43.8125 C 23.609375 -43.8125 25.195312 -43.53125 26.84375 -42.96875 C 28.5 -42.40625 30.003906 -41.710938 31.359375 -40.890625 C 32.710938 -40.066406 33.625 -39.210938 34.09375 -38.328125 L 34.09375 -42.390625 Z M 25.609375 -11.390625 C 27.960938 -11.390625 29.960938 -12.359375 31.609375 -14.296875 C 33.265625 -16.242188 34.09375 -18.570312 34.09375 -21.28125 C 34.09375 -23.988281 33.265625 -26.300781 31.609375 -28.21875 C 29.960938 -30.132812 27.960938 -31.09375 25.609375 -31.09375 C 23.316406 -31.09375 21.390625 -30.132812 19.828125 -28.21875 C 18.265625 -26.300781 17.484375 -23.988281 17.484375 -21.28125 C 17.484375 -18.570312 18.265625 -16.242188 19.828125 -14.296875 C 21.390625 -12.359375 23.316406 -11.390625 25.609375 -11.390625 Z M 25.609375 -11.390625 "/></g></g></g><g fill="#000000" fill-opacity="1"><g transform="translate(266.234008, 215.971836)"><g><path d="M 44.15625 -15.984375 L 17.578125 -15.984375 C 18.285156 -14.398438 19.300781 -13.132812 20.625 -12.1875 C 21.945312 -11.25 23.34375 -10.660156 24.8125 -10.421875 C 26.820312 -10.128906 28.617188 -10.171875 30.203125 -10.546875 C 31.796875 -10.929688 33.132812 -11.445312 34.21875 -12.09375 C 35.3125 -12.75 36.035156 -13.3125 36.390625 -13.78125 L 42.125 -5.734375 C 39.414062 -3.265625 36.722656 -1.46875 34.046875 -0.34375 C 31.367188 0.769531 28.03125 1.328125 24.03125 1.328125 C 20.195312 1.328125 16.644531 0.3125 13.375 -1.71875 C 10.113281 -3.75 7.507812 -6.472656 5.5625 -9.890625 C 3.625 -13.304688 2.65625 -17.078125 2.65625 -21.203125 C 2.65625 -25.378906 3.625 -29.175781 5.5625 -32.59375 C 7.507812 -36.007812 10.113281 -38.734375 13.375 -40.765625 C 16.644531 -42.796875 20.195312 -43.8125 24.03125 -43.8125 C 27.914062 -43.8125 31.414062 -42.867188 34.53125 -40.984375 C 37.65625 -39.097656 40.113281 -36.535156 41.90625 -33.296875 C 43.707031 -30.054688 44.609375 -26.347656 44.609375 -22.171875 C 44.609375 -21.109375 44.578125 -20.0625 44.515625 -19.03125 C 44.453125 -18 44.332031 -16.984375 44.15625 -15.984375 Z M 24.03125 -31.1875 C 22.257812 -31.1875 20.710938 -30.640625 19.390625 -29.546875 C 18.066406 -28.453125 17.140625 -26.9375 16.609375 -25 L 31.796875 -25 C 31.390625 -27.0625 30.476562 -28.609375 29.0625 -29.640625 C 27.644531 -30.671875 25.96875 -31.1875 24.03125 -31.1875 Z M 24.03125 -31.1875 "/></g></g></g></svg>